
        <svg xmlns="http://www.w3.org/2000/svg" xmlns:xlink="http://www.w3.org/1999/xlink" version="1.1" width="3213.5231316725976" height="1153.0249110320285" viewBox="0 0 3213.5231316725976 1153.0249110320285">
			
			<g transform="scale(10.676156583629894) translate(10, 10)">
				<defs id="SvgjsDefs5262"/><g id="SvgjsG5263" featureKey="symbolFeature-0" transform="matrix(0.09088366478681564,0,0,0.09088366478681564,-13.041094756928441,-0.9883954693146038)" fill="#000"><path xmlns="http://www.w3.org/2000/svg" d="M292.4,147.3c-13.3,0-24.2-10.9-24.2-24.2c0-13.3,10.9-24.2,24.2-24.2c13.3,0,24.2,10.9,24.2,24.2  C316.6,136.4,305.7,147.3,292.4,147.3z M292.4,108.9c-7.8,0-14.2,6.4-14.2,14.2c0,7.8,6.4,14.2,14.2,14.2c7.8,0,14.2-6.4,14.2-14.2  C306.6,115.3,300.2,108.9,292.4,108.9z"/><g xmlns="http://www.w3.org/2000/svg"><path d="M502.9,875.9c-45.6,0-89.9-8.8-131.8-26.3c-41.2-17.1-78.2-41.8-110.1-73.3c-31.9-31.5-57-68.2-74.6-109.2   c-18.2-42.4-27.6-87.5-27.8-134c-0.1-20.5,1.6-40.9,5.1-60.7l9.8,1.7c-3.4,19.2-5,39-4.9,58.9c0.2,45.1,9.3,88.9,27,130.1   c17.1,39.8,41.5,75.4,72.4,106c31,30.6,66.9,54.5,106.9,71.2c40.7,16.9,83.7,25.5,128,25.5c0.8,0,1.6,0,2.4,0   c88.8-0.6,172.2-35.6,234.8-98.6c62.7-63.1,97.2-146.8,97.2-235.7c0-89.3-34.7-173.2-97.7-236.3c-63-63.1-146.9-97.9-236.2-98   c-0.3,0-0.7,0-1,0c-31,0-61.7,4.3-91.2,12.7c-19.6,5.6-40.8,0.2-55.2-14.2l-54.7-54.5l7.1-7.1l54.7,54.5   c11.9,11.8,29.3,16.2,45.4,11.6c30.7-8.8,62.7-13.2,95-13.1c92,0.1,178.4,36,243.3,101c64.9,65,100.6,151.4,100.6,243.3   c0,91.6-35.5,177.7-100.1,242.7c-64.5,64.9-150.4,101-241.9,101.6C504.5,875.9,503.7,875.9,502.9,875.9z"/></g><path xmlns="http://www.w3.org/2000/svg" d="M710,773.9c-8.2,6.8-9.4,18.9-2.6,27.1c6.7,8.2,18.8,9.4,27,2.7l0,0c0,0,0,0,0.1,0l0,0l0,0c46.8-38.5,80.7-87,101-139.8l0,0  c3-6.5,2.2-14.4-2.6-20.2c-6.8-8.2-18.9-9.4-27.1-2.6c-2.7,2.2-4.6,4.9-5.7,7.9l0,0C782,696.2,751.8,739.6,710,773.9"/><path xmlns="http://www.w3.org/2000/svg" d="M461.8,849.3c-10.5-1.6-20.3,5.6-21.9,16.1s5.6,20.2,16,21.9l0,0c0,0,0,0,0.1,0l0,0l0,0c59.9,9,118.6,1.8,171.4-18.4l0,0  c6.8-2.1,12.2-8,13.3-15.5c1.6-10.5-5.6-20.3-16.1-21.9c-3.4-0.5-6.7-0.1-9.7,1l0,0C567.7,850.8,515.3,857.4,461.8,849.3"/><path xmlns="http://www.w3.org/2000/svg" d="M246.2,719.5c-6.1-8.7-18.1-10.7-26.8-4.5c-8.6,6.1-10.7,18.1-4.6,26.7l0,0c0,0,0,0,0.1,0.1l0,0l0,0  c35.1,49.4,81,86.6,132.3,110.6l0,0c6.2,3.4,14.2,3.2,20.4-1.2c8.7-6.2,10.7-18.2,4.5-26.8c-2-2.8-4.6-4.9-7.5-6.3l0,0  C318.7,796.8,277.5,763.6,246.2,719.5"/><path xmlns="http://www.w3.org/2000/svg" d="M745.6,319.9c7,8,19.2,8.7,27.1,1.7c7.9-7,8.7-19.1,1.7-27.1l0,0c0,0,0,0,0-0.1l0,0l0,0c-40.1-45.4-89.7-77.5-143.2-96l0,0  c-6.6-2.7-14.4-1.7-20.1,3.3c-8,7-8.7,19.2-1.7,27.1c2.3,2.6,5.1,4.4,8.1,5.4l0,0C665.4,250.8,709.8,279.4,745.6,319.9"/><path xmlns="http://www.w3.org/2000/svg" d="M185.4,487.1c1.6-10.5-5.6-20.3-16.1-21.9s-20.3,5.6-21.9,16l0,0c0,0,0,0,0,0.1l0,0l0,0c-9.1,59.9-2,118.6,18.1,171.5l0,0  c2.1,6.8,7.9,12.2,15.5,13.3c10.5,1.6,20.3-5.6,21.9-16.1c0.5-3.4,0.1-6.7-1-9.7l0,0C183.7,593.1,177.3,540.6,185.4,487.1"/><path xmlns="http://www.w3.org/2000/svg" d="M491.6,828.5c-4.2-0.1-8.5-0.4-12.7-0.7l2.6-33.9c3.7,0.3,7.5,0.5,11.3,0.6L491.6,828.5z M512.7,828.5l-1.2-34  c3.8-0.1,7.5-0.4,11.3-0.6l2.7,33.9C521.2,828.1,517,828.4,512.7,828.5z M457.8,825.5c-4.2-0.6-8.4-1.3-12.5-2.1l6.4-33.4  c3.7,0.7,7.4,1.3,11.1,1.9L457.8,825.5z M546.5,825.4l-5-33.6c3.7-0.6,7.4-1.2,11.1-1.9l6.5,33.4C554.9,824,550.6,824.8,546.5,825.4  z M424.6,818.6c-4.1-1.1-8.2-2.3-12.2-3.5l10.2-32.4c3.6,1.1,7.2,2.2,10.8,3.1L424.6,818.6z M579.7,818.5l-8.8-32.8  c3.6-1,7.3-2,10.8-3.2l10.2,32.4C587.8,816.2,583.7,817.4,579.7,818.5z M392.3,808c-3.9-1.6-7.9-3.2-11.8-4.9l13.8-31.1  c3.4,1.5,6.9,3,10.4,4.4L392.3,808z M611.9,807.8l-12.5-31.6c3.5-1.4,6.9-2.8,10.4-4.4l13.9,31.1  C619.7,804.6,615.8,806.3,611.9,807.8z M361.5,793.8c-3.7-2-7.5-4.1-11.1-6.2l17.2-29.3c3.2,1.9,6.5,3.7,9.8,5.5L361.5,793.8z   M642.6,793.6l-16-30c3.3-1.8,6.6-3.6,9.8-5.5l17.3,29.3C650,789.5,646.3,791.6,642.6,793.6z M332.5,776.2c-3.5-2.4-7-4.9-10.3-7.4  l20.4-27.2c3,2.2,6.1,4.5,9.2,6.6L332.5,776.2z M671.5,775.9l-19.3-28c3.1-2.1,6.2-4.3,9.1-6.6l20.5,27.1  C678.4,771,675,773.5,671.5,775.9z M305.7,755.4c-3.2-2.8-6.4-5.6-9.4-8.5l23.4-24.7c2.7,2.6,5.5,5.1,8.4,7.6L305.7,755.4z   M698.2,755.2l-22.3-25.6c2.8-2.5,5.6-5,8.3-7.6l23.4,24.7C704.6,749.5,701.4,752.4,698.2,755.2z M281.4,731.8  c-2.8-3.1-5.7-6.3-8.4-9.5l26-21.9c2.4,2.9,4.9,5.7,7.4,8.5L281.4,731.8z M722.5,731.5l-25.1-23c2.5-2.8,5-5.6,7.4-8.5l26,21.9  C728.2,725.1,725.3,728.4,722.5,731.5z M259.9,705.6c-2.5-3.4-4.9-6.9-7.3-10.4l28.3-18.8c2.1,3.1,4.2,6.2,6.4,9.2L259.9,705.6z   M743.9,705.2l-27.5-20c2.2-3,4.4-6.1,6.4-9.3l28.3,18.8C748.9,698.3,746.4,701.8,743.9,705.2z M241.6,677.1  c-2.1-3.7-4.1-7.4-6-11.2l30.3-15.5c1.7,3.3,3.5,6.7,5.3,9.9L241.6,677.1z M762.3,676.7l-29.6-16.7c1.8-3.3,3.6-6.6,5.3-9.9  l30.3,15.4C766.4,669.2,764.4,673,762.3,676.7z M226.6,646.8c-1.6-3.9-3.2-7.8-4.7-11.8l31.8-12c1.3,3.5,2.7,7,4.2,10.4L226.6,646.8  z M777.3,646.2L746,632.9c1.5-3.4,2.9-7,4.2-10.5l31.9,11.9C780.5,638.3,778.9,642.3,777.3,646.2z M215.1,614.9  c-1.2-4-2.3-8.2-3.4-12.3l33-8.3c0.9,3.6,1.9,7.3,3,10.9L215.1,614.9z M788.7,614.2l-32.6-9.6c1.1-3.6,2-7.2,2.9-10.9l33,8.2  C791,606.1,789.9,610.2,788.7,614.2z M207.3,581.9c-0.7-4.2-1.4-8.4-1.9-12.6l33.7-4.5c0.5,3.7,1.1,7.5,1.7,11.1L207.3,581.9z   M796.4,581.2l-33.5-5.8c0.6-3.7,1.2-7.4,1.7-11.1l33.7,4.4C797.7,572.8,797.1,577,796.4,581.2z M203.4,548.2  c-0.3-4.2-0.4-8.5-0.5-12.7l34-0.6c0.1,3.7,0.2,7.5,0.5,11.3L203.4,548.2z M800.3,547.5l-33.9-2c0.2-3.7,0.4-7.5,0.4-11.3l34,0.6  C800.7,539.1,800.5,543.3,800.3,547.5z M237.1,516.1l-34-1.7c0.2-4.2,0.5-8.5,0.9-12.7l33.9,3.1  C237.6,508.5,237.3,512.3,237.1,516.1z M766.4,515.5c-0.2-3.7-0.5-7.5-0.8-11.2l33.8-3.2c0.4,4.2,0.7,8.5,0.9,12.7L766.4,515.5z   M240.4,486.2l-33.5-5.5c0.7-4.2,1.5-8.4,2.3-12.5l33.3,7C241.7,478.8,241,482.5,240.4,486.2z M763.2,485.6  c-0.6-3.7-1.3-7.4-2.1-11.1l33.3-7c0.9,4.1,1.7,8.3,2.4,12.5L763.2,485.6z M246.9,456.9l-32.7-9.3c1.2-4.1,2.4-8.2,3.8-12.2  l32.3,10.7C249.1,449.7,248,453.3,246.9,456.9z M756.5,456.3c-1-3.6-2.2-7.2-3.3-10.8l32.2-10.8c1.3,4,2.6,8.1,3.8,12.2L756.5,456.3  z M256.8,428.5l-31.4-13c1.6-3.9,3.3-7.8,5.1-11.7l30.8,14.3C259.8,421.5,258.2,425,256.8,428.5z M746.6,428  c-1.4-3.4-3-6.9-4.5-10.3l30.8-14.4c1.8,3.8,3.5,7.7,5.1,11.6L746.6,428z M269.9,401.4l-29.7-16.5c2-3.7,4.2-7.4,6.4-11l29,17.7  C273.6,394.8,271.7,398.1,269.9,401.4z M733.5,401c-1.8-3.3-3.7-6.5-5.7-9.7l29-17.8c2.2,3.6,4.4,7.3,6.4,11L733.5,401z M285.9,376  l-27.7-19.7c2.5-3.4,5-6.9,7.6-10.2l26.8,20.9C290.4,369.9,288.1,372.9,285.9,376z M717.4,375.6c-2.2-3-4.5-6.1-6.8-9l26.8-20.9  c2.6,3.3,5.2,6.7,7.6,10.2L717.4,375.6z M304.7,352.5l-25.3-22.7c2.8-3.1,5.8-6.3,8.7-9.3l24.3,23.8  C309.8,347,307.2,349.7,304.7,352.5z M698.6,352.2c-2.5-2.8-5.1-5.5-7.7-8.2l24.3-23.8c3,3,5.9,6.1,8.7,9.3L698.6,352.2z   M326.1,331.3l-22.6-25.4c3.2-2.8,6.4-5.6,9.7-8.2l21.5,26.4C331.8,326.4,328.9,328.9,326.1,331.3z M677.2,331.1  c-2.8-2.5-5.7-4.9-8.6-7.3l21.4-26.4c3.3,2.7,6.5,5.4,9.7,8.2L677.2,331.1z M349.6,312.7l-19.5-27.8c3.5-2.4,7-4.8,10.5-7.1  l18.3,28.6C355.9,308.4,352.7,310.6,349.6,312.7z M653.6,312.5c-3.1-2.2-6.2-4.3-9.4-6.3l18.3-28.7c3.6,2.3,7.1,4.6,10.6,7.1  L653.6,312.5z M375.1,296.9L358.9,267c3.7-2,7.5-4,11.3-5.8l15,30.5C381.8,293.3,378.4,295.1,375.1,296.9z M628,296.6  c-3.3-1.8-6.7-3.5-10-5.2l14.9-30.5c3.8,1.9,7.6,3.8,11.3,5.8L628,296.6z M402.3,284l-12.8-31.5c3.9-1.6,7.9-3.1,11.9-4.5l11.4,32  C409.3,281.3,405.7,282.6,402.3,284z M600.8,283.8c-3.5-1.4-7-2.7-10.6-4l11.3-32.1c4,1.4,8,2.9,11.9,4.5L600.8,283.8z M430.7,274.3  l-9.1-32.8c4.1-1.1,8.2-2.2,12.3-3.1l7.7,33.1C438,272.4,434.3,273.3,430.7,274.3z M572.4,274.2c-3.6-1-7.3-1.9-10.9-2.8l7.6-33.1  c4.1,0.9,8.3,2,12.3,3.1L572.4,274.2z M460,268l-5.3-33.6c4.2-0.7,8.4-1.2,12.6-1.7l3.9,33.8C467.5,266.9,463.7,267.4,460,268z   M543,267.9c-3.7-0.6-7.5-1.1-11.2-1.5l3.8-33.8c4.2,0.5,8.4,1,12.6,1.7L543,267.9z M489.9,265l-1.5-34c4.2-0.2,8.5-0.3,12.7-0.3  l0.1,34C497.5,264.7,493.7,264.8,489.9,265z M513.1,264.9c-3.7-0.2-7.5-0.2-11.3-0.2v-34c4.2,0,8.5,0.1,12.7,0.3L513.1,264.9z"/><path xmlns="http://www.w3.org/2000/svg" d="M823.8,558.2c-1.1,10.6,6.6,20,17.2,21.1c10.5,1.1,20-6.5,21.1-17.1l0,0c0,0,0,0,0-0.1l0,0l0,0  c6.2-60.3-3.8-118.5-26.5-170.4l0,0c-2.5-6.7-8.5-11.8-16.1-12.5c-10.6-1.1-20,6.6-21.1,17.2c-0.3,3.4,0.2,6.7,1.5,9.7l0,0  C820.3,452.3,829.3,504.3,823.8,558.2"/><g xmlns="http://www.w3.org/2000/svg"><g><path d="M547.8,321.9c-0.3,0-0.7,0-1-0.1c-12.5-2.3-25.6-3.5-38.8-3.5c-3,0-5.5-2.5-5.5-5.5s2.5-5.5,5.5-5.5    c13.9,0,27.6,1.2,40.8,3.7c3,0.6,5,3.4,4.4,6.4C552.7,320.1,550.4,321.9,547.8,321.9z"/><path d="M585.1,748c-2.2,0-4.3-1.4-5.2-3.6c-1.1-2.8,0.4-6,3.2-7.1c23.6-8.7,45.3-21.4,64.5-37.7c2.3-2,5.8-1.7,7.8,0.6    c2,2.3,1.7,5.8-0.6,7.8c-20.2,17.1-43.1,30.5-67.8,39.7C586.4,747.9,585.8,748,585.1,748z M678.4,682c-1.2,0-2.5-0.4-3.5-1.3    c-2.3-1.9-2.6-5.4-0.7-7.7c16.2-19.4,28.7-41.2,37.3-64.8c1-2.9,4.2-4.3,7-3.3c2.9,1,4.3,4.2,3.3,7c-9,24.8-22.2,47.8-39.2,68.1    C681.6,681.3,680,682,678.4,682z M726.5,578.3c-0.3,0-0.6,0-1-0.1c-3-0.5-5-3.4-4.5-6.4c2.1-12.2,3.2-24.8,3.2-37.3    c0-12.6-1.1-25.2-3.2-37.4c-0.5-3,1.5-5.8,4.5-6.4c3-0.5,5.8,1.5,6.4,4.5c2.3,12.9,3.4,26.1,3.4,39.3c0,13.2-1.1,26.4-3.4,39.2    C731.5,576.4,729.1,578.3,726.5,578.3z M716.6,464.4c-2.2,0-4.4-1.4-5.2-3.6c-8.6-23.6-21.1-45.4-37.3-64.8    c-1.9-2.3-1.6-5.8,0.7-7.7c2.3-1.9,5.8-1.6,7.7,0.7c17,20.4,30.2,43.3,39.2,68.1c1,2.9-0.4,6-3.3,7    C717.8,464.3,717.2,464.4,716.6,464.4z M651.2,370.7c-1.3,0-2.5-0.4-3.5-1.3c-19.3-16.3-41-29-64.6-37.7c-2.8-1.1-4.3-4.2-3.2-7.1    c1.1-2.8,4.2-4.3,7.1-3.2c24.8,9.2,47.6,22.5,67.8,39.7c2.3,2,2.6,5.4,0.6,7.8C654.3,370,652.8,370.7,651.2,370.7z"/><path d="M508,761.8c-3,0-5.5-2.5-5.5-5.5s2.5-5.5,5.5-5.5c12.7,0,25.8-1.2,38.8-3.5c3-0.5,5.8,1.5,6.4,4.4c0.5,3-1.5,5.8-4.4,6.4    C535.1,760.6,521.3,761.8,508,761.8z"/></g></g><path xmlns="http://www.w3.org/2000/svg" d="M499.9,721c-35.5,0-69.9-10.1-99.7-29.2c-2.6-1.6-3.3-5-1.7-7.6c1.6-2.6,5-3.3,7.6-1.7c28,17.9,60.4,27.4,93.7,27.4  c46.4,0,89.9-18,122.7-50.8s50.8-76.3,50.8-122.7s-18-89.9-50.8-122.7C589.8,381,546.3,363,499.9,363c-46.4,0-89.9,18-122.7,50.8  c-32.8,32.8-50.8,76.3-50.8,122.7c0,17.8,2.7,35.5,8.1,52.6c0.4,1.4,0.3,2.9-0.4,4.2s-1.9,2.3-3.3,2.7l-45.5,13.5  c-2.9,0.9-5.9-0.7-6.8-3.6c-18.4-57.8-13.3-119.3,14.5-173.3c27.8-54,75-93.8,132.7-112.3c2.9-0.9,6,0.7,6.9,3.6  c0.9,2.9-0.7,6-3.6,6.9c-111.8,35.8-174.4,154.6-141.7,266.6l35-10.4c-4.7-16.5-7-33.5-7-50.6c0-49.3,19.2-95.6,54-130.5  s81.2-54,130.5-54s95.6,19.2,130.5,54s54,81.2,54,130.5s-19.2,95.6-54,130.5C595.5,701.8,549.2,721,499.9,721z"/><circle xmlns="http://www.w3.org/2000/svg" cx="500" cy="536.6" r="118.9"/><path xmlns="http://www.w3.org/2000/svg" d="M385.4,696.9c-13.3,0-24.2-10.9-24.2-24.2s10.9-24.2,24.2-24.2c13.3,0,24.2,10.9,24.2,24.2S398.7,696.9,385.4,696.9z   M385.4,658.5c-7.8,0-14.2,6.4-14.2,14.2s6.4,14.2,14.2,14.2c7.8,0,14.2-6.4,14.2-14.2S393.2,658.5,385.4,658.5z"/></g><g id="SvgjsG5264" featureKey="textGroupContainer" transform="matrix(1,0,0,1,280,0)" fill="#000"><rect xmlns="http://www.w3.org/2000/svg" y="0" height="1" width="1" opacity="0"/><rect xmlns="http://www.w3.org/2000/svg" y="0" x="-195" width="3" height="88"/></g><g id="SvgjsG5265" featureKey="nameFeature-0" transform="matrix(1.0175508260726929,0,0,1.0175508260726929,101.37192020310218,9.789391819145282)" fill="#000"><path d="M12.058 12 c5.7668 0 10.459 4.692 10.459 10.459 l0 7.0824 c0 5.7668 -4.692 10.459 -10.459 10.459 c-5.7664 0 -10.458 -4.692 -10.458 -10.459 l0 -7.0824 c0 -5.7668 4.6916 -10.459 10.458 -10.459 z M18.125 29.541 l0 -7.0824 c0 -3.3452 -2.7215 -6.0668 -6.0668 -6.0668 c-3.3449 0 -6.0664 2.7215 -6.0664 6.0668 l0 7.0824 c0 3.3452 2.7215 6.0668 6.0664 6.0668 c3.3452 0 6.0668 -2.7215 6.0668 -6.0668 z M50.456 30.0756 c0.00082032 0.039258 -0.000625 0.07832 -0.0022656 0.11648 c-0.0010938 0.02332 0.00027344 0.046368 -0.0013672 0.06996 c-0.0010938 0.015117 -0.0030078 0.029922 -0.0041016 0.04504 l-0.0024609 0.027188 c-0.41232 5.4252 -4.9776 9.6648 -10.427 9.6648 c-5.7668 0 -10.459 -4.692 -10.459 -10.459 c0 -1.2128 0.98328 -2.196 2.196 -2.196 s2.196 0.98328 2.196 2.196 c0 3.3452 2.7215 6.0668 6.0668 6.0668 c2.8585 0 5.2916 -2.0127 5.9092 -4.724 l-7.4624 -7.4624 c-0.85756 -0.85756 -0.85756 -2.248 0 -3.1056 c0.85784 -0.85756 2.248 -0.85756 3.1058 0 l8.2428 8.2428 c0.016758 0.016758 0.030742 0.034609 0.04668 0.05164 c0.026914 0.028828 0.053828 0.057384 0.0791 0.087576 c0.023594 0.028008 0.045272 0.056564 0.067228 0.085116 c0.021133 0.027734 0.041992 0.055468 0.061756 0.084024 c0.021953 0.031836 0.04254 0.06422 0.062576 0.096876 c0.017031 0.027734 0.033789 0.055744 0.049728 0.084296 c0.018672 0.034024 0.03625 0.068048 0.053008 0.10262 c0.014805 0.029922 0.029062 0.060116 0.042228 0.09086 c0.014531 0.03375 0.027969 0.0675 0.040588 0.10152 c0.012617 0.03375 0.024414 0.067228 0.035391 0.10152 c0.010156 0.032656 0.019492 0.06504 0.028281 0.097968 c0.0098828 0.036524 0.018945 0.07332 0.026914 0.11066 c0.0068752 0.032383 0.012383 0.064764 0.017891 0.097148 c0.006328 0.037617 0.012109 0.075508 0.016484 0.11367 c0.0038281 0.03457 0.0062892 0.06914 0.0084764 0.10371 c0.0024609 0.035976 0.0046484 0.071952 0.0051952 0.1082 z M29.581300000000002 21.924 c-0.00082032 -0.038984 0.00085936 -0.07832 0.0025 -0.11676 c0.0010938 -0.02332 -0.00027344 -0.046368 0.0013672 -0.06996 c0.0010938 -0.015117 0.0030078 -0.029922 0.0041016 -0.04504 l0.0024609 -0.027188 c0.41232 -5.4252 4.9776 -9.6648 10.427 -9.6648 c5.7668 0 10.459 4.692 10.459 10.459 c0 1.2128 -0.98328 2.196 -2.196 2.196 s-2.196 -0.98328 -2.196 -2.196 c0 -3.3452 -2.7215 -6.0668 -6.0668 -6.0668 c-2.8585 0 -5.2916 2.0127 -5.9092 4.724 l7.4624 7.4624 c0.85756 0.85756 0.85756 2.248 0 3.1056 c-0.4288 0.4288 -0.99072 0.64316 -1.5529 0.64316 s-1.1241 -0.21438 -1.5529 -0.64316 l-8.2428 -8.2428 c-0.016758 -0.016758 -0.030742 -0.034609 -0.04668 -0.05164 c-0.026914 -0.028828 -0.053828 -0.057384 -0.0791 -0.087576 c-0.023594 -0.028008 -0.045272 -0.056564 -0.067228 -0.085116 c-0.021133 -0.027734 -0.041992 -0.055468 -0.061756 -0.084024 c-0.021953 -0.031836 -0.04254 -0.06422 -0.062576 -0.096876 c-0.017031 -0.027734 -0.033789 -0.055744 -0.049728 -0.084296 c-0.018672 -0.034024 -0.03625 -0.068048 -0.053008 -0.10262 c-0.014805 -0.030195 -0.028789 -0.060116 -0.042228 -0.09086 c-0.014531 -0.033476 -0.027969 -0.0675 -0.040588 -0.10152 c-0.012617 -0.033476 -0.024414 -0.066952 -0.035391 -0.10125 c-0.01043 -0.032383 -0.019766 -0.06504 -0.028555 -0.097968 c-0.0098828 -0.036797 -0.018945 -0.07332 -0.026914 -0.11066 c-0.0068752 -0.032383 -0.012383 -0.064764 -0.017891 -0.097148 c-0.006328 -0.037617 -0.012109 -0.075508 -0.016484 -0.11367 c-0.0038281 -0.03457 -0.0062892 -0.06914 -0.0084764 -0.10371 c-0.0024609 -0.035976 -0.0046484 -0.071952 -0.0051952 -0.1082 z M59.716 12 c1.213 0 2.196 0.98328 2.196 2.196 l0 23.608 c0 1.2128 -0.98328 2.196 -2.196 2.196 s-2.196 -0.98328 -2.196 -2.196 l0 -23.608 c0 -1.2128 0.98328 -2.196 2.196 -2.196 z M89.918 21.279 c0 5.1164 -4.162 9.2784 -9.2776 9.2784 l-4.6035 0 l5.0756 5.8008 c0.79856 0.913 0.70604 2.3004 -0.20668 3.099 c-0.41644 0.36453 -0.93196 0.54324 -1.4453 0.54324 c-0.61104 0 -1.2191 -0.25363 -1.6534 -0.74996 l-8.2628 -9.4432 c-0.56768 -0.64868 -0.70332 -1.5691 -0.34726 -2.3536 s1.1381 -1.2885 1.9998 -1.2885 l9.4428 0 c2.6943 0 4.8864 -2.192 4.8864 -4.8864 s-2.1922 -4.8864 -4.8864 -4.8864 l-4.1412 0 l4.5136 4.5136 c0.85756 0.85756 0.85756 2.248 0 3.1056 c-0.85784 0.85784 -2.248 0.85784 -3.1058 0 l-8.2628 -8.2628 c-0.62808 -0.62808 -0.81584 -1.5726 -0.47576 -2.3932 s1.1408 -1.3555 2.0289 -1.3555 l9.4428 0 c5.1164 0 9.2784 4.1624 9.2784 9.2784 z M99.15600000000002 12 c1.213 0 2.196 0.98328 2.196 2.196 l0 23.608 c0 1.2128 -0.98328 2.196 -2.196 2.196 s-2.196 -0.98328 -2.196 -2.196 l0 -23.608 c0 -1.2128 0.98328 -2.196 2.196 -2.196 z M129.336 30.0756 c0.00082032 0.039258 -0.000625 0.07832 -0.0022656 0.11648 c-0.0010938 0.02332 0.00027344 0.046368 -0.0013672 0.06996 c-0.0010938 0.015117 -0.0030078 0.029922 -0.0041016 0.04504 l-0.0024609 0.027188 c-0.41232 5.4252 -4.9776 9.6648 -10.427 9.6648 c-5.7668 0 -10.459 -4.692 -10.459 -10.459 c0 -1.2128 0.98328 -2.196 2.196 -2.196 s2.196 0.98328 2.196 2.196 c0 3.3452 2.7215 6.0668 6.0668 6.0668 c2.8585 0 5.2916 -2.0127 5.9092 -4.724 l-7.4624 -7.4624 c-0.85756 -0.85756 -0.85756 -2.248 0 -3.1056 c0.85784 -0.85756 2.248 -0.85756 3.1058 0 l8.2428 8.2428 c0.016758 0.016758 0.030742 0.034609 0.04668 0.05164 c0.026914 0.028828 0.053828 0.057384 0.0791 0.087576 c0.023594 0.028008 0.045272 0.056564 0.067228 0.085116 c0.021133 0.027734 0.041992 0.055468 0.061756 0.084024 c0.021953 0.031836 0.04254 0.06422 0.062576 0.096876 c0.017031 0.027734 0.033789 0.055744 0.049728 0.084296 c0.018672 0.034024 0.03625 0.068048 0.053008 0.10262 c0.014805 0.029922 0.029062 0.060116 0.042228 0.09086 c0.014531 0.03375 0.027969 0.0675 0.040588 0.10152 c0.012617 0.03375 0.024414 0.067228 0.035391 0.10152 c0.010156 0.032656 0.019492 0.06504 0.028281 0.097968 c0.0098828 0.036524 0.018945 0.07332 0.026914 0.11066 c0.0068752 0.032383 0.012383 0.064764 0.017891 0.097148 c0.006328 0.037617 0.012109 0.075508 0.016484 0.11367 c0.0038281 0.03457 0.0062892 0.06914 0.0084764 0.10371 c0.0024609 0.035976 0.0046484 0.071952 0.0051952 0.1082 z M108.46130000000002 21.924 c-0.00082032 -0.038984 0.00085936 -0.07832 0.0025 -0.11676 c0.0010938 -0.02332 -0.00027344 -0.046368 0.0013672 -0.06996 c0.0010938 -0.015117 0.0030078 -0.029922 0.0041016 -0.04504 l0.0024609 -0.027188 c0.41232 -5.4252 4.9776 -9.6648 10.427 -9.6648 c5.7668 0 10.459 4.692 10.459 10.459 c0 1.2128 -0.98328 2.196 -2.196 2.196 s-2.196 -0.98328 -2.196 -2.196 c0 -3.3452 -2.7215 -6.0668 -6.0668 -6.0668 c-2.8585 0 -5.2916 2.0127 -5.9092 4.724 l7.4624 7.4624 c0.85756 0.85756 0.85756 2.248 0 3.1056 c-0.4288 0.4288 -0.99072 0.64316 -1.5529 0.64316 s-1.1241 -0.21438 -1.5529 -0.64316 l-8.2428 -8.2428 c-0.016758 -0.016758 -0.030742 -0.034609 -0.04668 -0.05164 c-0.026914 -0.028828 -0.053828 -0.057384 -0.0791 -0.087576 c-0.023594 -0.028008 -0.045272 -0.056564 -0.067228 -0.085116 c-0.021133 -0.027734 -0.041992 -0.055468 -0.061756 -0.084024 c-0.021953 -0.031836 -0.04254 -0.06422 -0.062576 -0.096876 c-0.017031 -0.027734 -0.033789 -0.055744 -0.049728 -0.084296 c-0.018672 -0.034024 -0.03625 -0.068048 -0.053008 -0.10262 c-0.014805 -0.030195 -0.028789 -0.060116 -0.042228 -0.09086 c-0.014531 -0.033476 -0.027969 -0.0675 -0.040588 -0.10152 c-0.012617 -0.033476 -0.024414 -0.066952 -0.035391 -0.10125 c-0.01043 -0.032383 -0.019766 -0.06504 -0.028555 -0.097968 c-0.0098828 -0.036797 -0.018945 -0.07332 -0.026914 -0.11066 c-0.0068752 -0.032383 -0.012383 -0.064764 -0.017891 -0.097148 c-0.006328 -0.037617 -0.012109 -0.075508 -0.016484 -0.11367 c-0.0038281 -0.03457 -0.0062892 -0.06914 -0.0084764 -0.10371 c-0.0024609 -0.035976 -0.0046484 -0.071952 -0.0051952 -0.1082 z"/></g><g id="SvgjsG5266" featureKey="sloganFeature-0" transform="matrix(0.4124250113964081,0,0,0.4124250113964081,102.48848137354597,57.651936038755466)" fill="#000"><path d="M17.998 20 l-2.9199 0 l-0.92773 -10.635 l-3.5742 10.635 l-1.8945 0 l-3.5742 -10.635 l-0.9375 10.635 l-2.9297 0 l1.1816 -14.111 l4.1797 0 l3.0078 8.8574 l3.0469 -8.8574 l4.1797 0 z M32.3095984375 20.19531 c-4.1504 0 -7.2168 -2.832 -7.2168 -7.2559 c0 -4.4336 3.0664 -7.2461 7.2168 -7.2461 c4.1406 0 7.207 2.8125 7.207 7.2461 c0 4.4238 -3.0664 7.2559 -7.207 7.2559 z M32.3095984375 17.5098 c2.4316 0 4.2969 -1.709 4.2969 -4.5703 c0 -2.8516 -1.8652 -4.5508 -4.2969 -4.5508 s-4.2969 1.6992 -4.2969 4.5508 c0 2.8613 1.8652 4.5703 4.2969 4.5703 z M54.658159375 20 l-3.6719 -6.2109 l-0.84961 0 l0 6.2109 l-2.9297 0 l0 -14.111 l5.1172 0 c3.1934 0 4.541 1.8848 4.541 4.2188 c0 1.8945 -1.0742 3.125 -2.9883 3.5352 l4.248 6.3574 l-3.4668 0 z M50.136759375 8.32 l0 3.3691 l1.7285 0 c1.5625 0 2.1973 -0.66406 2.1973 -1.6797 c0 -1.0059 -0.63477 -1.6895 -2.1973 -1.6895 l-1.7285 0 z M73.4523828125 8.467 l-5.2344 0 l0 3.2031 l4.6387 0 l0 2.5488 l-4.6387 0 l0 3.1934 l5.2344 0 l0 2.5879 l-8.1836 0 l0 -14.111 l8.1836 0 l0 2.5781 z M100.5521015625 5.888999999999999 l2.9297 0 l0 14.111 l-2.9297 0 l0 -5.8008 l-5.9668 0 l0 5.8008 l-2.9297 0 l0 -14.111 l2.9297 0 l0 5.7617 l5.9668 0 l0 -5.7617 z M117.353534375 20.19531 c-3.0957 0 -5.5176 -1.582 -5.5176 -5.1367 l0 -9.1699 l2.9297 0 l0 8.7695 c0 2.1484 1.1426 2.9492 2.5879 2.9492 c1.4551 0 2.6074 -0.81055 2.6074 -2.9492 l0 -8.7695 l2.9297 0 l0 9.1699 c0 3.5547 -2.4316 5.1367 -5.5371 5.1367 z M147.4169453125 20 l-2.9199 0 l-0.92773 -10.635 l-3.5742 10.635 l-1.8945 0 l-3.5742 -10.635 l-0.9375 10.635 l-2.9297 0 l1.1816 -14.111 l4.1797 0 l3.0078 8.8574 l3.0469 -8.8574 l4.1797 0 z M164.92234375 20 l-1.0254 -2.9102 l-5.9277 0 l-1.0254 2.9102 l-2.998 0 l5.1953 -14.111 l3.584 0 l5.1953 14.111 l-2.998 0 z M158.82814375 14.6387 l4.209 0 l-2.0996 -5.9863 z M184.6730078125 5.888999999999999 l2.9199 0 l0 14.111 l-3.3887 0 l-6.25 -10.088 l0 10.088 l-2.9199 0 l0 -14.111 l3.3496 0 l6.2891 10.029 l0 -10.029 z M214.6144921875 5.888999999999999 l0 2.5781 l-3.3496 0 l0 11.533 l-2.9004 0 l0 -11.533 l-3.3691 0 l0 -2.5781 l9.6191 0 z M230.723 5.888999999999999 l2.9297 0 l0 14.111 l-2.9297 0 l0 -5.8008 l-5.9668 0 l0 5.8008 l-2.9297 0 l0 -14.111 l2.9297 0 l0 5.7617 l5.9668 0 l0 -5.7617 z M251.7436328125 20 l-1.0254 -2.9102 l-5.9277 0 l-1.0254 2.9102 l-2.998 0 l5.1953 -14.111 l3.584 0 l5.1953 14.111 l-2.998 0 z M245.6494328125 14.6387 l4.209 0 l-2.0996 -5.9863 z M271.494296875 5.888999999999999 l2.9199 0 l0 14.111 l-3.3887 0 l-6.25 -10.088 l0 10.088 l-2.9199 0 l0 -14.111 l3.3496 0 l6.2891 10.029 l0 -10.029 z M302.14878125 5.888999999999999 l2.9297 0 l0 14.111 l-2.9297 0 l0 -5.8008 l-5.9668 0 l0 5.8008 l-2.9297 0 l0 -14.111 l2.9297 0 l0 5.7617 l5.9668 0 l0 -5.7617 z M318.9502140625 20.19531 c-3.0957 0 -5.5176 -1.582 -5.5176 -5.1367 l0 -9.1699 l2.9297 0 l0 8.7695 c0 2.1484 1.1426 2.9492 2.5879 2.9492 c1.4551 0 2.6074 -0.81055 2.6074 -2.9492 l0 -8.7695 l2.9297 0 l0 9.1699 c0 3.5547 -2.4316 5.1367 -5.5371 5.1367 z M349.013625 20 l-2.9199 0 l-0.92773 -10.635 l-3.5742 10.635 l-1.8945 0 l-3.5742 -10.635 l-0.9375 10.635 l-2.9297 0 l1.1816 -14.111 l4.1797 0 l3.0078 8.8574 l3.0469 -8.8574 l4.1797 0 z M366.5190234375 20 l-1.0254 -2.9102 l-5.9277 0 l-1.0254 2.9102 l-2.998 0 l5.1953 -14.111 l3.584 0 l5.1953 14.111 l-2.998 0 z M360.4248234375 14.6387 l4.209 0 l-2.0996 -5.9863 z M386.2696875 5.888999999999999 l2.9199 0 l0 14.111 l-3.3887 0 l-6.25 -10.088 l0 10.088 l-2.9199 0 l0 -14.111 l3.3496 0 l6.2891 10.029 l0 -10.029 z"/></g>
			</g>
		</svg>
	